<svg xmlns="http://www.w3.org/2000/svg" viewBox="0 0 96.73 117.43"><defs><style>.cls-1{fill:#23661b;}</style></defs><title>Asset 8</title><g id="Layer_2" data-name="Layer 2"><g id="Kuvituselementit"><path class="cls-1" d="M96.5,62.07c1,2.92-1.31,2.32-3.32,4.64s-1.92,2.41-3.93,4.73-2.41,2-4.43,4.3-2.17,2.19-4.18,4.52-2,2.38-4,4.71-1.58,2.7-3.6,5-1.87,2.46-3.88,4.78-2.65,1.78-4.67,4.1-1.66,2.63-3.68,5-2.21,2.15-4.23,4.48-1.75,2.56-3.76,4.89-1.11,4.23-4.19,4.23-2-2-4-4.36-1.73-2.56-3.74-4.89-2.11-2.24-4.12-4.56-1.86-2.46-3.88-4.79-2.32-2.06-4.33-4.38-2.28-2.1-4.3-4.43-1.85-2.46-3.87-4.78-1.87-2.45-3.88-4.78-2.12-2.24-4.13-4.56-1.87-2.46-3.88-4.79-1.85-2.47-3.87-4.8S-.78,64.78.16,61.85c.85-2.63,2.93.48,5.7.48s2.76-.77,5.53-.77,3.81,2.52,5.72.51-.1-3.09-.1-6S17,53.14,17,50.22s.14-2.93.14-5.85-.29-2.93-.29-5.85.24-2.92.24-5.85S17,29.75,17,26.82s.18-2.92.18-5.84,0-2.93,0-5.85.14-2.93.14-5.86-.72-2.93-.72-5.85A3.66,3.66,0,0,1,19.88,0c2.88,0,2.88.82,5.75.82S28.51.27,31.39.27,34.27,1,37.14,1,40,0,42.9,0s2.88.81,5.76.81S51.54.53,54.42.53,57.29.37,60.17.37s2.88.18,5.76.18S68.81,1,71.7,1,74.58,1,77.46,1a2.15,2.15,0,0,1,2.41,2.46c0,2.92.33,2.92.33,5.84s.64,2.92.64,5.84-.5,2.93-.5,5.85-.46,2.92-.46,5.85S81,29.72,81,32.65s-.17,2.92-.17,5.85,0,2.92,0,5.84-.71,2.93-.71,5.85.36,2.93.36,5.86-2.15,3.82-.14,6,2.87-.4,5.64-.4,2.71.45,5.4-.23S95.65,59.44,96.5,62.07Z"/></g></g></svg>