<svg xmlns="http://www.w3.org/2000/svg" viewBox="0 0 124.27 72.74"><defs><style>.cls-1{fill:#fff;}</style></defs><title>CO2</title><g id="Layer_2" data-name="Layer 2"><g id="Layer_1-2" data-name="Layer 1"><path class="cls-1" d="M53.69,11.23C56.35,9.41,59,7.61,62.15,6.9a17.64,17.64,0,0,1,3.77-.43A12.33,12.33,0,0,1,69.7,7a1.86,1.86,0,0,1,1.33,1,.93.93,0,0,1,.41.66,2.58,2.58,0,0,1,0,.42c0,1.26-.78,3.52-2,4.12-1.91.91-3.76,1.91-5.73,2.72a12.61,12.61,0,0,0-6.93,7.09,19.34,19.34,0,0,0-1,2.93,2.1,2.1,0,0,1-.24.63,30.18,30.18,0,0,0-2.72,9.44,3.81,3.81,0,0,0,0,.59c0,.14,0,.29,0,.44a2.41,2.41,0,0,1-.25,1.23c0,.2,0,.4,0,.6a.71.71,0,0,1,.18.51c0,.08,0,.16,0,.25a22.77,22.77,0,0,0,1.94,4.75,14,14,0,0,0,3.85,4.49c2,1.56,4.23,2,6.78,2.38a5.33,5.33,0,0,1,2.57,1,3.32,3.32,0,0,1,1.05,2.56,3.06,3.06,0,0,1-.82,2.2.94.94,0,0,1-.7.29h-.14A19.65,19.65,0,0,0,65,57.15a21.28,21.28,0,0,0-3.33.27,3.25,3.25,0,0,1-.44,0,5,5,0,0,1-2-.52L57,56a4,4,0,0,1-2.25-1.07,9.76,9.76,0,0,0-1.91-1.27A4.53,4.53,0,0,1,51,52.08,20.1,20.1,0,0,1,47.61,46,61.38,61.38,0,0,1,45,37.74a11.73,11.73,0,0,1-.23-2.44c0-.92.07-1.84.15-2.76.12-1.49.32-3,.44-4.48a26.66,26.66,0,0,1,3.48-11,34.26,34.26,0,0,1,2.42-3.52A8.57,8.57,0,0,1,53.69,11.23Z"/><path class="cls-1" d="M87.88,59.53a10.3,10.3,0,0,1-2.5.34,6.72,6.72,0,0,1-2-.29,1.88,1.88,0,0,1-.36-.21,6.78,6.78,0,0,1-2.47-1.21,10.41,10.41,0,0,1-2.92-2.53,23.19,23.19,0,0,1-6-13.38,13.36,13.36,0,0,0-.64-3A18.21,18.21,0,0,1,70.27,35a30.24,30.24,0,0,1-.22-3.67,48.61,48.61,0,0,1,1.32-10.44,6.75,6.75,0,0,1,.49-1.54c1.68-3.52,3.23-7.1,5.2-10.46A34.23,34.23,0,0,1,80,5,4.82,4.82,0,0,1,82.2,3.87a.78.78,0,0,1,.57-.21h.09a.33.33,0,0,1,.23-.07h.16a.3.3,0,0,0,.3-.16,5.26,5.26,0,0,1,2.91-.92A7.12,7.12,0,0,1,90.3,3.87a10.77,10.77,0,0,1,4.45,5.72A29.82,29.82,0,0,1,97.39,21c0,2.23,0,4.46.07,6.69a1.3,1.3,0,0,1,.13.6c0,.22,0,.44,0,.65,0,3.67-.08,7.34-.08,11a50.54,50.54,0,0,1-1,8.59,17.63,17.63,0,0,1-1,4,6.89,6.89,0,0,1-2.27,3c-.15.11-.38.18-.47.33-.74,1.24-2,1.73-2.89,2.7A3.72,3.72,0,0,1,87.88,59.53Zm.3-6.58c.58,0,1-.33,1.37-1a17.41,17.41,0,0,0,2-7.93c.08-1.66.2-3.34.2-5v-.65c-.07-3.51,0-7-.18-10.53-.14-2.57-.06-5.16-.41-7.73a26.21,26.21,0,0,0-2.09-7.6A6.7,6.7,0,0,0,85.68,9.3a2.07,2.07,0,0,0-.9-.2,3.88,3.88,0,0,0-1.15.21,3.43,3.43,0,0,1-1.07.3l-.24,0-.06-.1-.06,0a.21.21,0,0,1-.19.19.33.33,0,0,1,0,.15c-1.49,3.1-2.64,6.36-3.89,9.6A16.36,16.36,0,0,0,77.21,25c0,1.45-.13,2.91-.13,4.37a27.07,27.07,0,0,0,.2,3.48,1.84,1.84,0,0,1,0,.33,1.24,1.24,0,0,1-.24.78L77,33.91A.22.22,0,0,0,77,34a29.83,29.83,0,0,1,.79,4.4A27.72,27.72,0,0,0,80,46.08l.1,0a.28.28,0,0,1,.23.17c.78,1.31,1.7,2.51,2.37,3.89,0,0,0,0,0,0a0,0,0,0,0,0,0,15.56,15.56,0,0,0,4.88,2.68A2,2,0,0,0,88.18,53Z"/><path class="cls-1" d="M122.32,72.74c-.87,0-1.73-.07-2.6-.07h-1.29c-1.71,0-3.38,0-5-.16a14.44,14.44,0,0,1-4-.76c-.28-.1-.58,0-.84-.2a9.67,9.67,0,0,1-3.53-.89,2.82,2.82,0,0,1-1.79-2.78v0a8.7,8.7,0,0,1,.27-2.35,3.65,3.65,0,0,1,2.09-2.71,6.93,6.93,0,0,0,2.77-2.37,15.32,15.32,0,0,1,2.3-2.58,2.82,2.82,0,0,0,.52-.57,18.31,18.31,0,0,1,2.33-2.56,13.44,13.44,0,0,0,2.22-3c.47-.88,1-1.72,1.38-2.63a10,10,0,0,0,.66-2.63,2,2,0,0,0,0-.23,2.71,2.71,0,0,0-.43-1.3,8.35,8.35,0,0,0-4.22-3.74,6.11,6.11,0,0,0-2.25-.46,5.83,5.83,0,0,0-4,1.67,2.89,2.89,0,0,0-1,2c-.12,1.32-.41,2.62-.63,3.93a.65.65,0,0,1-.06.21,6.05,6.05,0,0,1-2.37,2.39,1.22,1.22,0,0,1-.5.12,1.13,1.13,0,0,1-.72-.29,3.9,3.9,0,0,1-1.24-2.45,3.66,3.66,0,0,0-.32-1,2.06,2.06,0,0,1-.28-1.09,2.89,2.89,0,0,1,0-.5,10.17,10.17,0,0,1,3.44-6.23A11.64,11.64,0,0,1,109,36.61a9.79,9.79,0,0,1,1.92-.2,8.26,8.26,0,0,1,4.14,1.1A18,18,0,0,1,119.6,41a9.93,9.93,0,0,1,2.34,4.23,2.57,2.57,0,0,1,.09.67,2.05,2.05,0,0,1-.1.65c-.22.68-.35,1.39-.57,2.07a14.39,14.39,0,0,0-.5,1.7,9.82,9.82,0,0,1-.92,2.34,17.11,17.11,0,0,1-3.1,4.71c-.65.66-1.14,1.51-1.81,2.18a11.91,11.91,0,0,1-1.54,1.3,5.92,5.92,0,0,0-1.32,1.23,18.42,18.42,0,0,1-1.57,1.73c-.12.11-.29.22-.29.4a.32.32,0,0,0,0,.13c.09.24.31.23.52.26,1.57.18,3.16.21,4.74.29a4.91,4.91,0,0,1,1.56.26l1.2-.1h.36a6.16,6.16,0,0,1,3.07.86,3.58,3.58,0,0,1,1.76,2.44,12.87,12.87,0,0,1,.63,1.81c0,.12,0,.24,0,.35s0,.51,0,.77a3.16,3.16,0,0,0,.1.86.13.13,0,0,1,0,.06c0,.13-.13.21-.24.28a2.16,2.16,0,0,1-1,.27C122.8,72.74,122.56,72.74,122.32,72.74Z"/><path class="cls-1" d="M31.22,41.14c-2.45-2.17-4.88,2.08-5.78,3.3a37.27,37.27,0,0,1-5.9,6.7c-1.14-9.45-.8-18.78-.14-28.32A89.15,89.15,0,0,1,19.15,2.5,2.5,2.5,0,0,0,16.65,0c-4.94.51-2.57,15.65-2.56,19.67.4,10.66-1,21.6.37,32.2-3-3.39-6.6-7.8-10.18-11C2,38.58-1.58,42.2.76,44.45a99,99,0,0,1,9,9.73c2.29,2.06,3.68,5.23,6.67,6.06,3.58-.66,4.13-3.79,6.64-5.57a42.17,42.17,0,0,0,6.42-7.32C30.35,46,33.73,43,31.22,41.14Z"/></g></g></svg>