<svg xmlns="http://www.w3.org/2000/svg" viewBox="0 0 119.11 60.01"><defs><style>.cls-1{fill:#fff;}</style></defs><title>dropdown-line</title><g id="Layer_2" data-name="Layer 2"><g id="Tekstit"><path class="cls-1" d="M44.86,0C42.25,0,39.63,0,37,.15A39.93,39.93,0,0,0,29.78,1a29.24,29.24,0,0,0-6.72,2.27,39.78,39.78,0,0,0-5.39,3.18C16,7.64,15,9.29,13.51,10.6s-3.42,2.47-4.86,3.9a47.24,47.24,0,0,0-4.32,4.28c-1.26,1.62-1.65,3.59-2.41,5.38S0,27.74,0,29.65a15.47,15.47,0,0,0,1.12,5.7,22.94,22.94,0,0,0,3.07,5.26c1.52,2,3.79,3.57,5.83,5.23A46.78,46.78,0,0,0,17,50.06a53.74,53.74,0,0,0,7.48,3.61,73.2,73.2,0,0,0,6.92,2.51c2.41.63,4.86,1.25,7.34,1.69s5,.6,7.57.89,5.1.09,7.64.27,5.11.82,7.71.92,5.19-.12,7.78-.17,5.28.42,7.84.14,4.89-1.5,7.39-2.06c3.05-.69,6.23-1,9-2.18s5-3,7.49-4.45a78.59,78.59,0,0,0,7.19-4.68c1.65-1.21,3.41-2.38,4.93-3.74a18,18,0,0,0,3.68-4.43,13.42,13.42,0,0,0,2.16-5.28,15,15,0,0,0-1-5.51,16.88,16.88,0,0,0-2.45-5.52,25.37,25.37,0,0,0-4.41-4.84c-1.77-1.38-4.25-2.19-6.34-3.3a55.49,55.49,0,0,0-6.31-3.28c-2.71-1-5.73-1.45-8.54-2.26s-5.45-2-8.28-2.74-5.86-1-8.77-1.56-5.82-1.4-8.86-1.2c-3.8.24-3.79,5.23,0,5a30.66,30.66,0,0,1,6.93.45c2.26.38,4.57.71,6.8,1.31s4.33,1.42,6.55,2,4.66.76,6.84,1.43A72,72,0,0,1,98.55,16a37.77,37.77,0,0,1,6.27,4,22.29,22.29,0,0,1,5.36,4.61,11.52,11.52,0,0,1,2.45,8.73c-.43,3.22-2.33,5.8-5.15,8.06-1.9,1.52-4.28,2.67-6.37,4.07s-3.65,3.35-6,4.52a54.17,54.17,0,0,1-7.47,2.85c-2.77.92-5.81,1.09-8.73,1.51s-5.83,1.26-8.82,1.34-6-.5-9-.62S55,54.83,52,54.58s-6.08-.75-9.11-1.21S36.9,52.24,34,51.5a63.53,63.53,0,0,1-7.15-2.33A51.29,51.29,0,0,1,20,46.29a40.15,40.15,0,0,1-6.1-3.79A26.7,26.7,0,0,1,9,37.37a14.45,14.45,0,0,1-2.18-6.09A10.55,10.55,0,0,1,7.29,25a20.74,20.74,0,0,1,3.14-4.78,52.85,52.85,0,0,1,3.86-4.47c1.43-1.34,3.19-2.5,4.72-3.78a44.16,44.16,0,0,1,5.28-3.26,23.89,23.89,0,0,1,5.86-2.9A28.6,28.6,0,0,1,37,4.7c2.62-.11,5.23.07,7.84.13s5.26.19,7.87,0c3.8-.25,3.85-4.79,0-4.54C52.67.31,47.48.07,44.86,0Z"/></g></g></svg>