<svg xmlns="http://www.w3.org/2000/svg" viewBox="0 0 116.15 116.15"><defs><style>.cls-1{fill:#23661b;}</style></defs><title>Asset 6</title><g id="Layer_2" data-name="Layer 2"><g id="Kuvituselementit"><path class="cls-1" d="M73.74,45.9c.12.19-.24,1-.33,1.1a4,4,0,0,1-1.44.28c-1.14-.23-1.21-.34-1.36-.57a.74.74,0,0,0-.43-.37,1.77,1.77,0,0,0-1.84.26,1,1,0,0,1-.77.28c-1.51,0-1.91-1.05-1.61-1.36.46-.48.46-.48.44-.76s-.08-1.1.27-.75l.1.09c.11,0,.24-.32.22-.62a.34.34,0,0,1,.08-.28c.09-.13.28-.09.37-.22a2.44,2.44,0,0,1,.24-.41l.06,0a.38.38,0,0,1,.32-.1c.36.11.37.18.38.24a.25.25,0,0,0,.14.18s.3.12.42.06.18-.06.19,0,.07,0,.07.12a.57.57,0,0,1-.08.25c-.16.08-.35,0-.51.06v0c.18.18.47,0,.63.25s-.2.37,0,.55a.68.68,0,0,0,.33.08c.27,0,.35-.31.57-.41s.46,0,.67-.12l.09-.05v-.06c-.3-.12-.66,0-.94-.19,0,0-.55-.42-.12-.59s1-.58,1.57-.76c.23-.07.9-.16,1-.05a.58.58,0,0,1-.5.22c-.11,0-.13,0-.16,0-.14.29.14.55,0,.84s-.4.19-.44.44a.51.51,0,0,0,.12.35C72.17,44.61,73.19,45,73.74,45.9Zm-3.18,4.53c.41,1.1-1,4.11-1,4.12a.82.82,0,0,1-.4-.06l-.76-.19c-.69,0-1.24.69-2,.37-1-.42-1.16-.51-1.64-.37-.64-1.27-3-1.12-3.1-.9-.17.51.6,1.4-.11,1.54s-2.45-.44-2.64-1c-.25-.72-.25-.72-1.54-.82-.49,0-1.42-.12-1.06-1.36a.78.78,0,0,0,0-.14c.07-.27-.25-.44-.18-.71s.12-.27.58-.7l-.09-.08c-.38.06-.71-.21-1.09-.16s-.77.27-1.18.3c-1.73.15-1.79.13-2,.06-.74-.28-1.61.33-2.7,1.09a2.21,2.21,0,0,1-2.13-.18c-.16-.25-.22-.31-.32-.32.7-.37,1.54-.4,2.22-.84.08-.06,1.08-1,1.1-1.29-1.3-1,.8-1.93.82-1.94.73-.16.73-.16.68-1.05s-.06-1,.9-1c.48,0,1,.27,1.45,0s.52-1,1.16-.83a1.59,1.59,0,0,1,.51.79,9.24,9.24,0,0,0,1.09,1.31c.6.57,1.37.91,1.94,1.5l.12.13c.36.53-.3,1.09,0,1.62l.12,0a4.52,4.52,0,0,0,.61-1c-.84-.86,0-.91,0-.91.26,0,.35.25.54.36l.08-.09c-.17-.72-1.15-.69-1.31-1.43a3.54,3.54,0,0,0-.46,0c-.09,0-1.39-1.73-1.4-1.75-.53-.85-.41-.94-.31-1s1-.74,1-.09a.51.51,0,0,0,0,.25c.8,1.16,2.48,1.27,3.16,2.59a.88.88,0,0,1,0,.55.86.86,0,0,0,0,.59l.08.14c.3.57,1,.87,1.12,1.54.07.27-.14.52-.07.8a1.25,1.25,0,0,0,.4.38c.46-.14.57-.69,1-.85a2.86,2.86,0,0,1,.17-.56.74.74,0,0,0-.7-.27,3.36,3.36,0,0,1-.3-1.2l.09-.07c.17,0,.23.23.37.31.22-.17.22-.55.57-.59a12.82,12.82,0,0,1,2.88.17l0,.12c-.55.28-1.21.19-1.76.51-.32.19-.17.39,0,.48.5.22.5.22.31,1.31l.14.14c.34.24.79.22,1.14.46s.23.5.48.64c.31-.16.32-.55.57-.75.45.11.68.77,1.27.52C69.55,50.49,70.5,50.29,70.56,50.43ZM55.79,47.2a.51.51,0,0,0,.14-.32c0-.18-.15-.33-.12-.52A2,2,0,0,0,55.9,46a.34.34,0,0,0,0-.1c0-.24-.22-.54-.32-.54s-.55.8-.56.81,0,.12.14.2.37.45.2.63-.21.22-.28,1.06a2.14,2.14,0,0,0,.2.92c.13.11.59-1.11.58-1.33S55.83,47.43,55.79,47.2Zm3.17,2c0-.05,0-.06-.35-.06a2.27,2.27,0,0,0-.52,0c-.18.05-.34.16-.53.22a1.36,1.36,0,0,0,.24.24,4.89,4.89,0,0,1,.6.41c.17.17.17.17.23.2S59,50.22,59,50A4.2,4.2,0,0,0,59,49.24Zm57.19,8.83A58.08,58.08,0,1,1,58.07,0,58.15,58.15,0,0,1,116.15,58.07Zm-36-44.34c-.37.19-.66.49-1,.71a.79.79,0,0,1-.61.19c-.18,0-.29,0-.3.1-.05.33.44.47.29.84s-.77.48-1,.88c.09.26.65.14.55.47a.19.19,0,0,1,0,.07s0,0-.48.16l-.47.28c-.19.12-.22.14.17.41.23.17.34.25.27.34s-.35-.05-.53,0c0,.05,0,.07.07.27-.2.19-.37.42,0,.42s.41-.11.62,0,.11.06,0,.27c-.17.52-.21.64.23.59.59-.07,1.22.65,1.76,0,0-.05,0-.05-.15-.16s-1.1-.92-1-1.37A14.5,14.5,0,0,1,80,15.49a1.51,1.51,0,0,1,.64-.55c.2-.11.23-.35.39-.49s.41-.06.59,0a.67.67,0,0,0,.46.07l.09,0c.16-.1.28-.26.45-.36s.47-.18.69-.31l0,0s.76-1.07-.58-1.07c-.4,0-.46.19-.45.57,0,.16,0,.23-.11.27l-1.4.27a.36.36,0,0,0-.49-.15ZM79.9,8.81h0Zm-1.2-.07a.06.06,0,0,0,0,.06l.34.29h.2c.06,0,.11,0,.17,0s.38-.18.36-.3-.05-.08-.1-.13c-.25-.11-.49-.24-.74-.34,0,0-.08,0-.1.05s0,.11,0,.16a1.4,1.4,0,0,0-.1.16Zm-2.33-.19c0,.06.3.35.37.38a.29.29,0,0,0,.28,0c.12-.06.2-.16.32-.22l.17,0c.07,0,.09.07,0,.32s-.14.24-.12.39.25.09.28.08.17-.1.27-.12a2.62,2.62,0,0,0,.28,0h0c.56-.17.55-.19.54-.22s-.31-.1-.72-.1h0a1.53,1.53,0,0,1,.22-.25.14.14,0,0,0,.08-.1.37.37,0,0,0-.19-.27c0-.07.19-.09.16-.21s0,0,0-.06C78.1,8,77.9,8,77.71,7.89c0,0,0,.05,0,.07s-.06.14-.54.12a.24.24,0,0,0-.22.07c-.07.1,0,.22-.07.33S76.53,8.48,76.37,8.55ZM76,9.33c.14,0,.54,0,.48-.12l0,0s-.06-.07-.1-.1a.18.18,0,0,0-.09,0c-.1,0-.21,0-.26,0S76,9.15,76,9.33ZM75.8,21.7c.32.29.48.23.54.21a.44.44,0,0,0,.18-.17,1.36,1.36,0,0,0,.19-.4c0-.06,0-.06-.3-.29a.32.32,0,0,0-.15-.08c-.05,0-.41.1-.47.2S75.62,21.53,75.8,21.7ZM72.81,9s.11.06.44,0a1,1,0,0,1,.27-.06c.13,0,.25.06.38.07,0,.18-.28,0-.39.12a.94.94,0,0,0,.36.19.86.86,0,0,1,.27,0,1,1,0,0,0,.3.13.08.08,0,0,0,.08,0c.07-.1.25-.06.33,0s.28.27.5.27c0,0,.28-.15.29-.21v0s0,0-.1,0a.61.61,0,0,1-.21,0c-.07,0-.14-.07-.21-.09H75c-.1,0-.2,0-.22,0s-.08-.27.45-.4c.16,0,.23-.06.16-.14a.77.77,0,0,0-.19-.11A2.38,2.38,0,0,0,75,8.6c-.09,0-.16-.09-.24-.12h0s-.14,0-.07.21,0,.09,0,.13-.23.18-.28.15-.09-.19-.19-.24a1.37,1.37,0,0,0-.45-.1h0c-.1,0-.17.1-.27.12a2.54,2.54,0,0,0-.47.07S72.74,9,72.81,9ZM61.34,9.7c.13.08.21.24.39.25a1.68,1.68,0,0,0,.63-.16c.22-.1.23,0,.22,0a.38.38,0,0,1-.28.23l-.38.08a19.11,19.11,0,0,0,2.21.33.46.46,0,0,0,.19-.09c.16-.11.28-.28.45-.39s.32-.13.46-.24.1-.08.09-.14a1,1,0,0,0-.42-.43c-.24-.06-.42.11-.62.17,0,0-.81.14-.79-.23,0-.09,0-.12,0-.13A1.43,1.43,0,0,0,63,9.3s0,.11,0,.16a.28.28,0,0,1-.13.06c-.16,0-.25-.1-.38-.14s-.21-.08-.24-.16-.16-.36-.28-.37-.22.34-.09.45v0c-.2.05-.41-.06-.59.07S61.12,9.56,61.34,9.7Zm-3,.27a.29.29,0,0,0,0,.13c0,.33.36.52.44.83s-.34.17-.27.37a.64.64,0,0,0,.37.26c.3,0,.3,0,.49.33a1.32,1.32,0,0,1,.22.58c0,.14,0,.18.1.23s.11.1.18.15l.56.29s.11,0,.41,0A.18.18,0,0,0,61,13c.1-.18.08-.39.17-.57s.17-.18.23-.29.13-.43.25-.62.27-.32.38-.49.13-.19.25-.18.08.31.14.46.17.36.25.54a.19.19,0,0,0,0,.07c0,.09,0,.12,0,.15s-.12.06-.17.11a.85.85,0,0,0,.63,0c0,.07-.07.14,0,.21s.13,0,.2,0c.41-.12.51-.34.53-.43s-.09-.17-.1-.18-.34-.21-.49-.34-.38-.17-.52-.32-.05-.1,0-.21a2.48,2.48,0,0,0-.37-.34c-.5-.37-.6-.31-.76-.21s-.15.09-.22,0,0-.36-.13-.51a3.55,3.55,0,0,0-.44-.35l-.07,0c-.07,0-.56.06-.63.25-.14.38.5.4.36.78q-.24.06-.81-.72l-.39.32a1.64,1.64,0,0,1-.59-.15v0a1,1,0,0,0,.48-.48C58.91,9.71,58.37,9.51,58.3,10Zm-9.09,22.6a.69.69,0,0,0,.34-.53,3.45,3.45,0,0,0-.7-.1c-.15,0-.28.21-.41.57a5.32,5.32,0,0,1-.26.58l0-.07c-.17,0-.34.27-.35.3.2.23.26.3.23.43-.26.12-.26.12-.27.17s.26.14.25.33,0,.42,0,.48,0,.2.08.22.44-.35.55-.11c-.1.24-.41.38-.33.7.25.11.55-.28.78,0a1.26,1.26,0,0,1,.26,1.33s0,0-.13,0a.55.55,0,0,0-.72.17c-.13.17.21.21.31.32s.11.12-.09.43c0,0-.06.06-.18.1-.57.21-.35.41-.2.43l.81.1a.3.3,0,0,1,.22,0c.07,0,.16.18.12.24s-.23,0-.36,0a1.26,1.26,0,0,0-1.21,1,.85.85,0,0,0,.4,0,1.12,1.12,0,0,0,.55-.24c.16-.15.31-.19.8-.24a7.84,7.84,0,0,0,1.28-.06c.12,0,.73-.37.66-.5s-.32-.14-.3-.35,0-.08.34-.32.15-.79.08-.86-.56,0-.65-.35c-.19-.74-.19-.74-.28-.79a.67.67,0,0,1-.26-.22l0,0c-.08-.14-.39-1.06-.4-1.07-.09-.3-.89-.33-.59-.58.67-.56.9-.75.77-1.07,0-.11-.08-.11-.57-.08s-.58,0-.66,0S49,32.73,49.21,32.57Zm-1.66,4.77c0-.19.15-.35.18-.54s0-.33,0-.49.89-.68-.09-1.07a1.44,1.44,0,0,0-.48-.1.56.56,0,0,0-.28.06h0c-.14.1-.18.27-.25.52-.14.52-.24.56-.26.57s-.07,0-.1-.08c-.29-.33-.5-.24-.55-.19s-.21.78-.09.88.51-.07.59.22c0,0,0,0-.43.36a.64.64,0,0,0-.12,1c.07,0,.16,0,.34-.05s.4-.16.6-.22.56,0,.83-.14c.12,0,.18-.1.16-.26A3.68,3.68,0,0,1,47.55,37.34Zm-23,4.59c0-.27-.34-.39-.4-.66a2.47,2.47,0,0,1,.07-.75c0-.23.05-.28,0-.32s-.26,0-.44.11-.34.16-.45,0-.22-.62.27-1.44c.23-.38,0-.41,0-.41-.46,0-.94,1-1.1,1.3-.56,1.1-1,2-.69,2.19.14.11.41.05.71,0a1.61,1.61,0,0,1,.68,0c.05,0,0,.1-.05.22-.32.5-.17.63-.17.63h0s.15-.15.21-.24c.28-.36.34-.41.4-.42s.15.18.18.33.05.2.2.16c.45-.11.45-.11.49-.2a1,1,0,0,0,0-.41A.13.13,0,0,1,24.58,41.93Zm-6.1-18.3a.17.17,0,0,0,.11.05l.1,0,.29,0a.36.36,0,0,0,.23-.05,2.89,2.89,0,0,0,.35-.88c0-.15-.32-.29-.4-.29a.26.26,0,0,0-.19.09s-.38.47-.45.6A.52.52,0,0,0,18.48,23.63Zm-1.32,3c0,.23.45.23.63.23,1,0,1.09,0,1.21.66.08.05.08.05.46,1.37l.06,0c.11-.3.18-.5.4-.52.93,1.31,1.44.46,1.45.44.06-.5-.8-.53-.59-1.08,0-.06.22-.07.39.1a1.35,1.35,0,0,0,.46.29c.7.22.85-1.25.18-1.8-.35-.29-.3-.45-.29-.47.2-.53.78,0,.92.21.32.47.49-.18.49-.18,0-.17,0-.17.06-.23s.31,0,.42-.17,0-.47.24-.63c.76-.64.9-.76.11-.85-.17,0-.28-.12-.38-.35s-.55-.43-.68-.76-.48-.51-.56-.87.72,0,.8-.4c-.31-.17-.31-.17.12-.55,0-.35-.6,0-.62-.39s.4-.43.58-.67c0,0-.71-.29-1-.11-.17-.27.27-.6-.05-.84-.06,0-.12-.09-.29.08s-.54,0-.69-.06c-.57.55-1.13,1.09-1.68,1.66.15.3.37.81.37.82.08.21,0,.44.13.65s.24.14.3.28l.19,1.11c0,.82-1,1-1.16,1.68s-.28.65-.67.58C17.34,25.6,17.18,26.29,17.16,26.59ZM16,24.37a2.38,2.38,0,0,0,.85-1C16.59,23.67,16.31,24,16,24.37Zm-2.48,3.32s0,0,0,0,.24,0,.34-.05a1.46,1.46,0,0,1,.19-.07c.15,0,.12,0,.06.16-.17.33,0,.32,0,.32a1.73,1.73,0,0,0,.87-.79c.13-.29.39-.54.42-.35s-.25.28-.11.44a1,1,0,0,0,.71.25.1.1,0,0,0,.08-.1s-.07-.33-.09-.37-.22-.31-.29-.49,0-.19-.07-.28a.51.51,0,0,0-.1-.11,1.1,1.1,0,0,0-.5-.28C15,26,15,26,15,25.92a.44.44,0,0,1,0-.16c-.24.32-.49.64-.72,1a4.83,4.83,0,0,1-.16.5c0,.1-.09.16-.17.16s-.21.09-.3.17ZM32.88,78.84s-5.79-2.27-7.15-3.44a8.52,8.52,0,0,1,0-1c-1.19-.78-1.6-2.91-3.53-2.38,0,0-2.83-3-3.19-3.13l-.43.22c-.52-.32-.52-.32-1.43,0-.2-.24-.46-.55-.67-.77l-.37.33-.45-.2,0-.49c-1.12.25-1.2.46-1.81,2.15h-.51a1.62,1.62,0,0,0-.85-.55,5.74,5.74,0,0,0-.65.74c-1-1.42-.33-3.33-1.41-4.72A3.47,3.47,0,0,0,9,65.6c-.57-1.34.77-2.7,0-4-1.14.32-2.14,2.87-3.12,1.56C5,62,5.28,57.66,5.56,57a13.59,13.59,0,0,1,.93-1.16,5.11,5.11,0,0,0,1,0l.39.3a3.7,3.7,0,0,0,.58-.77c.59-.11.75-.15,1.38.46l.45-.16c1.13.81.64,2.23,1.21,3.24l.41-.37a19.39,19.39,0,0,0-.26-2c-.4-2.65,2.59-4.27,2.11-6.95l.34.34a5.43,5.43,0,0,0,.07-1c.3-.26.3-.26.7-1.32.05,0,.05,0,4.14-4-.06.39-.06.39-.69,1.33l.47.11c.91-.57,1.89-1.32,1.89-1.33h0a1.92,1.92,0,0,0,.6-.75c-1.51.42-1.51.42-2.07-.25,0-.15,0-.35,0-.51l-.4-.3a6.39,6.39,0,0,1,.78-.59l-.17-.45c-.67-.14-1-.2-2.41,1.23.43-.67.93-1.3,1.32-2,1.76-.27,7.14-1.11,5.34-3.25a1.73,1.73,0,0,0-.42-.25l.26-.42a8.65,8.65,0,0,1-1.67-1.64c.39-.61.39-.61-.48-3.54l-.44.19c-.45,1.29-.66,1.37-1.17,1.56-1.13-.57-.22-1.77-.37-2.65-.7-.29-.75-.48-.8-1.06a3.77,3.77,0,0,0-1.89-.25c-.49,1.24-.79,2.53-1.25,3.77a1.83,1.83,0,0,1,.35,2l-2.2,4.34-.42-.31a5.5,5.5,0,0,1,.18-2.69c-.93-.72-3.26-2.25-3.27-2.26s0-.09.05-.14a53.53,53.53,0,0,0-6,24.61,55.54,55.54,0,0,0,.46,6.74l.94,1a2.11,2.11,0,0,0,1.09-.61,14.11,14.11,0,0,0,.78,1.28c.75.13.75.13,4.46,4.46l.48-.15.1-.49.47-.12c1,1.13,1,1.13-.07,6.82.22.23.68.71,3,6.41.72,1.77,2.89,2.27,3.59,4.07l2.88,10.9c1.34,1.2,2.74,2.32,4.19,3.38l.25-.38-.43-.91c1.41-1,1.41-1,1.45-1.92-.4-.3-.52-.81-.87-1.14,1.3.1,1.3.1,1.78-2.6l.45-.18c-.06-1.16.06-2.31,0-3.46,2.78-2.72,2.78-2.72,3.33-4.52C32.45,86.54,33.29,79.54,32.88,78.84Zm-15-15.26c-.34-.24-.72.11-1.06-.06s-.51-.67-.9-.88a2.65,2.65,0,0,0-1,.1c-.32.07-.55.12-1.71-1.14-.2-.21-.23-.54-.49-.7l0,0c-.16-.06-.34,0-.5-.06s-.28-.22-.46-.27a1.18,1.18,0,0,0-.25,0c-1,0-1.37.74-1.21.94.44,0,.57-.84,1-.55.25.15.31.5.61.59s.47-.06.66.12c.35.33.31.88.68,1.2s.39.33.49.36c.58.15.58.15.62.19l0,0c.15.18,0,.42.16.6.23,0,.38-.24.61-.16a.14.14,0,0,1,.07.08,1.17,1.17,0,0,0,.53.45.37.37,0,0,0,0-.11c0-.24.09-.42.38-.56.07,0,.07,0,.29.13,0,0,0,0,.3,0s.17,0,.65.36c.11.08.17.09.2.08s.22-.17.35-.23C18,63.68,17.92,63.59,17.89,63.58ZM39.42,22a1.08,1.08,0,0,0,.66-.15s1.69-1,1.64-1.48a9.51,9.51,0,0,0-1.6-.05c-.35.07-.5.44-.82.55,0,0,0-.09,0-.13.36-.43,1-.52,1.26-1.08.18-.4-.46-.44-.42-.81.23.05.23.05,1.19,1.46a4.16,4.16,0,0,0,.93-.09s.31-1.08-.28-1.14c-.41-1-.41-1-1.17-1.44v-.12c.64-.46.91.67,1.52.67a.9.9,0,0,0,.11-.72c-.33-.39-.89-.33-1.26-.65.15-.54.86-.2.93-.09s.13.37.29.51,1.26-.16,1.16-.93a4.25,4.25,0,0,0-.8-.05l0-.13c.1-.18.1-.18.74-.14l0-.13h.14c.27.33.38.2.72-.22-.11-.06-.11-.06-.67,0v-.14l.24-.16v-.13c-.52-.07-.54-.08-.58-.69.38,0,.56.45,1,.35.12-.75-.1-1.61-.59-1.26s-.74-.18-.23-.6a2.51,2.51,0,0,0,1.77.12,1.29,1.29,0,0,0-.1-.63c-.22-.21-.53,0-.76-.19l0-.14a4.2,4.2,0,0,0,.7-.17c-.32-.37-.32-.37-1.4.19-.11-.58.22-.79,1.3-1.47.05-.24.34-.27.42-.47a1.81,1.81,0,0,1-.21-.18c.25-.45,1,.06,1.12-.51-.12-.07-.12-.07-.61-.09l.07-.11c.79,0,.85,0,1-.32L46.73,9l-.28,0c.7-.69,2,.23,2.53-.9a5.46,5.46,0,0,0-1.88-.29c-.32.07-.52.38-.85.43-.06,0-.06,0-.45-.25-.73.26-1.31.87-2.12.95.22-.77,2.12-.78,1.46-1.53-.47,0-.8.51-1.32.41a.76.76,0,0,1,.11-.26c-.86-.26-1.7.23-2.56.09V7.43c1.09-.56,2.37.34,3.43-.46-.1-.28-.8-.5-1.72-.67a53.6,53.6,0,0,0-15.33,7.2.64.64,0,0,1,.51.14c.36.35.42.72.73,4-1.37,0-.79,1.42-.78,1.44a.3.3,0,0,0,.11.07c.23-.05.23-.05.56-.4l.11.08c0,.26,0,.52,0,.79l.1.07c.8-.21.54.42.54.43a1,1,0,0,1-.16.19c-.43-.1-.64-1-1.14-.62-.33.23-.58,1.82-.58,1.83l.1.09a3.41,3.41,0,0,0,1.52-.73l.08.1c-.25.89-.39,1.38-.82,1.17s-1.07.83-1.1,1.21-.35.74-.34,1.17.43,1,.48,1.55-.09,1.15,0,1.73a9.6,9.6,0,0,0,1,2.66l1.05-.06a.65.65,0,0,0,0,.13c-.26.51.33.43.34.43s.41-.08.7-1.13c0,0,0,0,.73-1.08l0-.13a.43.43,0,0,1-.25-.35l.08-.1c.89,0,1.27-1.92,1.27-1.94a1.32,1.32,0,0,1-.25-.16l0-.12c.18-.06.36-.06.53-.13a1,1,0,0,1,0-.58c.52-.21,1.07.26,1.58-.06,2.14-1.34,2.39-2.39,2.4-2.44a2.77,2.77,0,0,1,.26-.1c.4-.13.85.4,1.19-.05A1.28,1.28,0,0,1,39.42,22Zm1.8,5.06a1.4,1.4,0,0,0,.42.42l.14.05c.16,0,.33,0,.48.05s.19.18.33.15.24-.18.44-.52.21-.34.56-.31.28,0,.33,0l.76-.45a2.18,2.18,0,0,0,.4-.75,1.69,1.69,0,0,0-.13-.31c-.08-.15-.21-.25-.29-.4s-.12-.38-.23-.55,0,0-.1-.07a2,2,0,0,0-.42-.11c-.11,0-.16.05-.2.22s-.08.23-.29.23a.55.55,0,0,1-.42-.13c-.07-.05-.12-.09-.19-.07-.23.06-.25.3-.38.46s-.21-.3-.4-.2-.08.13-.11.22a.58.58,0,0,1-.28.43c-.48.18-.48.18-.21-.38.16-.32-.46-.79-.53-.77a.19.19,0,0,0-.07.29c.06.07.1.12-.1.2s-.33-.08-.47.05a0,0,0,0,0,0,0,3.54,3.54,0,0,0-.3.56c.35.16.66-.27,1-.07.09,0-.1.47-.23.52s-.34.07-.51.14-.22.17-.22.2.12.06.5-.05c.19-.05.33-.09.39,0s0,.2-.16.37c-.51.62-.14.64-.14.64a.09.09,0,0,0,0-.05c.14-.05.24-.19.41-.2S41.1,26.9,41.22,27.07ZM77.13,83.21h-.06c-.19,0-.19,0-.28.53-.05.29-.09.28-.36.2a.9.9,0,0,0-.15.66c0,.28,0,.28-.23.4a7.31,7.31,0,0,0-.84.52c-.28.15-.63.07-.88.29l-.07.07a.59.59,0,0,0-.13.18,1.22,1.22,0,0,0,0,1.08c.2.33.45.73.27,1a.93.93,0,0,0-.13.15c-.12.19,0,.43-.17.62a.14.14,0,0,1-.11,0c-.2,0-.29.29-.33.44a1.2,1.2,0,0,0,0,.28c0,.34.39.51.39.85s-.37.32-.26.6a.85.85,0,0,0,.71.48.87.87,0,0,0,1-.45S76.63,88,77,86.45c.1-.4-.19-.75-.12-1.14.25-.09.26.25.41.36C78,85.35,77.16,83.23,77.13,83.21ZM93.57,69.55c-.08.51-.42,3,.5,2.36S94.15,70.14,93.57,69.55ZM107.29,80l-.93-.3c-.09,0-.14,0-.2.16-.2.36-.55.07-.57.05-.56-.48-.56-.48-.77-.46-.62.19-.71.86-.44,1s.47-.1.71,0,.48.35.77.43h0c.19,0,.38-.07.57,0l.37.09C107,80.65,107.15,80.34,107.29,80Zm3-8.79c0-.1,0-.19-.06-.19s-.4.36-.4.36c-.23.29-.13.7-.39,1s-.57.13-.75.39a5.12,5.12,0,0,0-.25.53,1.27,1.27,0,0,1-.13.22c-.26.33-.74.32-1,.67a.68.68,0,0,0-.12.47c0,.21,0,.29-.06.32-.37.19-.29-.52-.47-.75-.28,0-.74,1.58-.43,2,.11.15.34.19.41.38s0,.15-.1.48c-.17.53,0,.55.4.56h.17c.1,0,.1,0,.56.31.15.1.3,0,.45,0A54.23,54.23,0,0,0,110.32,71.23Zm.5-1.94a1.85,1.85,0,0,1-.38.4.5.5,0,0,0-.16.18.33.33,0,0,0,.18.48l.11-.1C110.65,69.93,110.75,69.61,110.82,69.29ZM112,58.1v0a54.3,54.3,0,0,0-.71-8.32,1.59,1.59,0,0,1-.54-1.27c.11-.09.2-.2.3-.3A54,54,0,0,0,91.47,15.8a2.71,2.71,0,0,0,.17.25c-.63.82-1.7.18-2.41.74.64.87,1.7,1.42,2,2.57l-.4.2a4.2,4.2,0,0,0-.07-.87l-.41.14a4.87,4.87,0,0,0-2-1.09,1.45,1.45,0,0,0,.4.75,4.91,4.91,0,0,1-.86-.21c.21.6.86.77,1.24,1.2a7.24,7.24,0,0,1-1.61-.65c.19-.82.19-.82-.51-1.6a2.73,2.73,0,0,0,.36.82,1.78,1.78,0,0,1-.62.6c.6,1.77,2.22,2.83,3.1,4.41l-.35.26c-1-1.8-1-1.8-1.59-1.42.59.93.59.93-.5,2.45-.28,0-.65.08-.92.09,1.12-2.29-.44-4.52-.14-6.79-.76-.85-1.07-.73-1.57-.52-.65,1.68-.65,1.68-.93,1.75-.06,1,1.49,2.81,1.51,2.82s0,.3,0,.43l-.47.12c-1.3-.79-2.81-1.19-4.07-2.09,0,.14,0,.32,0,.47a12,12,0,0,1,1,.9,2.05,2.05,0,0,0-.51.73,4.69,4.69,0,0,0-.62-.64,2.14,2.14,0,0,0-.71.45L79.05,22v.47a2.49,2.49,0,0,1-.86,0l.35-.3c0-.13,0-.31,0-.44l-.43,0c-.53.47-1.47.36-1.74,1.21l-.41.18c-.21.79-.21.79-.68,1a6.45,6.45,0,0,1-.75-.49c0-.13,0-.31,0-.44l.38-.25c0-.13.06-.31.09-.44-.41-.39-.41-.39-1.19-.58a1.7,1.7,0,0,0,.16.86c-.08.17-.08.17,0,1.65a1.53,1.53,0,0,1-.84-.14,12.48,12.48,0,0,0-1.11.83c.12.79.12.79-.29,1.18-.44-.13-.79-.46-1.23-.6l-.32.29a3.08,3.08,0,0,0,.79.59c-.06.12-.13.29-.18.41-.37,0-.75.08-1.52-.72.1-1.3.1-1.3-1.11-2.31,1.4-.41,3.18,2,4.07.32.65-1.24-2.64-3-2.68-3-.44-.13-.89.09-1.33,0,0-.13,0-.3,0-.43-.7-.15-1.44.18-2.13-.17l.85-.21a1.4,1.4,0,0,0-.35-.78l-.44.08-.34-.32a1.93,1.93,0,0,0-.64.63c-.09-.26-.22-.59-.33-.84l-.43.15c-.23.49-.27.58-1,.69l-.35-.27a2.91,2.91,0,0,0-.34.79l-.46.12a1.47,1.47,0,0,0-.74-.36c-.15.61-.15.61-.94.83a2,2,0,0,1-.4.79c-.68-.3-.68-.3-1.64.45l.37.25.39-.19c0,.15-.05.33-.08.47s-7.18,6.48-5.3,9.17c3.35.51,3.35.51,3.81,1.76-.25.53-.87.87-.85,1.55.58,0,1.06-.43,1.65-.37L60,33.86a16.34,16.34,0,0,0,1.28-3.3c-.71-.55-.71-.55-.87-1.08,2.11-3.82,2.11-3.82,2.15-4.1.55-.32,1.38-.81,2.12,0a3.31,3.31,0,0,1-.14.41c-.4.94-1.58,1.11-2,2s.29,1.85-.12,2.75c1.4.93,2.71-.61,4.09-.13l.16.42c-.85.57-1.83.21-2.74.39l-.24.37c.36,1.31.36,1.31.08,1.74l-.43.06a1.25,1.25,0,0,0-.75-.33c-.35.87-.2,1.85-.66,2.68-.56.08-.56.08-1.18-.44l-4.14,1c-.51-.67-.51-.67-.4-1.23h.43c0-.27-.07-.63-.11-.9l.39-.23a4.87,4.87,0,0,0-.28-.84L56.23,33c-.29.19-.29.19-.6,3.26l-.37.24-.41-.12c-1.06.66-1.45,2.18-2.94,2.31l-.33.41c.05.14.11.32.15.45a3,3,0,0,1-1.73.67c-.19.18-.44.42-.62.61-.28-.05-.65-.15-.92-.23,0,.16,0,.37,0,.53,3.52,3.11.41,4.19.37,4.19-1,.11-1.91-.14-2.86-.08-.09,1-.14,3.82-.14,3.82a3,3,0,0,0-.21.83,2.32,2.32,0,0,0,.87-.08c2.87,3-2.89,5.16-3.54,8.1l-.4.16c-.28,1-1.06,4.26-1.06,4.26s.09.32.12.46c.35,1.46-.44,2.84-.27,4.29s2.11,1.94,2.13,3.54A8.44,8.44,0,0,1,45.9,73c2.53,0,5.19-2.67,7.59,0,2.17,0,2.17,0,2.41.34a1.43,1.43,0,0,1,.15.44c.18.89-.79,1.48-.62,2.37s1.06,1.2,1.42,1.92a23.84,23.84,0,0,1,1.67,4.82c-1.16.9-1.45,3.6-1.28,3.89a7.88,7.88,0,0,1,1.54,4,25.62,25.62,0,0,0,2.3,6.51c2.57,0,7.34.14,6.77-5.46.54-.35,1.29-.29,1.71-.88.64-.92-.8-1.55-.34-2.45.73-1.43,2.57-1.76,3.24-3.26,1-2.32-1.19-4.49-.31-6.81,1.26-3.33,4.85-5,6-8.36.45-1.28.42-1.34.21-1.88-1.22-.35-2.41,1-3.65.08C73,67,73,64.61,71.46,63.2c.48-3.08-2.45-5-2.76-7.75.36.48.42,1.14.91,1.55l.41-.15c2.69,1.88,1.6,5.91,4.39,7.74a13.88,13.88,0,0,0,.47,2.93l.41.13c5.27-3,5.27-3,6.64-3.29a2.15,2.15,0,0,0,.39-.94c-.06-1.12,1.5-1.4,1.31-2.58-.13-.79-1.18-1.05-1.94-1.25a8.63,8.63,0,0,1,0-1.35c-2.47,1.58-2.47,1.58-2.86,1.69a12.71,12.71,0,0,1,.27-2,5.51,5.51,0,0,0-.6.68c-.41-.81-.93-1.57-1.31-2.4a1.7,1.7,0,0,1,1.06-.85c.66.65.91,1.66,1.82,2.09,2.17,1,4.63.42,6.85,1.19,1,.33,1.17,1.48,2.06,1.9l-.44.12c0,.59,0,.59.7,1.06a2.3,2.3,0,0,0,.75-.42c1.8,2.68-1.54,7.47,2.59,8.87,1.29-1.85,1.24-4.26,2.54-6.11,1.12-1.59,3.18-2.08,4.32-3.66l1.27,4.69.28.34c.54-.17.56-.17.82-.92l.35.27c.77,8,.77,8,1.52,9.77l-.43.05a4.45,4.45,0,0,1-1.55-2.2,3.26,3.26,0,0,1-.8-.32l-.36.31a5.52,5.52,0,0,0,1.42,2.21,2.75,2.75,0,0,1,0,.86c1,1.08.38,3.62,2.47,3.69a10.15,10.15,0,0,0,.55-2.28l-.36-.29-.35.28c-.76-.54-.24-1.32-.38-2,1.06-1.07.51-2-.7-3.9-.68-1.11-.68-1.11.09-4,.09,0,2.25,1.43,1.58,3.11,1.49-.54,3.82-3.32,2-5.09-1.65-1.56-.89-3.46.85-3.53l.16.41c-.46.55-.56.69-.88,1.11a1.88,1.88,0,0,0,.47.71c.11-.09.26-.2.36-.3.53-.55.11-1.41.63-2,.67-.71,1.78-.59,2.44-1.3a7.54,7.54,0,0,0,.88-1.11Z"/></g></g></svg>