<svg xmlns="http://www.w3.org/2000/svg" viewBox="0 0 50.69 125.2"><defs><style>.cls-1{fill:#23661b;}</style></defs><title>Asset 10</title><g id="Layer_2" data-name="Layer 2"><g id="Kuvituselementit"><path class="cls-1" d="M31.25,27.49c1.64.16,3.37-.68,5-.33,1.36.29,3.05,0,4.07.73s3.48,5.72,3.79,7.08c.27,1.17-.14,2.51-.11,3.91,0,1.24.45,6.24,0,7.31A34.28,34.28,0,0,1,39.44,52c-.71.65-2.31.34-3,1a22.62,22.62,0,0,0-2.28,2,17.6,17.6,0,0,0-1.68,3.25,17.3,17.3,0,0,0-1.54,3.3,42,42,0,0,0-.3,7.19,30.13,30.13,0,0,0,.6,3.52c.27,1.17,1.55,2,1.95,3.11a50.17,50.17,0,0,0,3.24,6.11,28.22,28.22,0,0,0,2.2,2.68c.74.79.65,2.36,1.39,3.14s1.93,1.17,2.68,1.94,1.24,1.84,2,2.59c.95.9,2.22,1.43,2.87,2.53a15.44,15.44,0,0,1,1.62,3.52c.34,1.2,1.39,2.43,1.49,3.77a56.62,56.62,0,0,1-1,7.53,23.61,23.61,0,0,1-1,3.62,22,22,0,0,1-1.72,3.34A21.53,21.53,0,0,1,44.49,119,24,24,0,0,1,42,121.77a10.74,10.74,0,0,1-3.46,1.74c-1.23.47-2.43,1.67-3.73,1.69a18.59,18.59,0,0,1-4-.77c-1.08-.24-1.93-1.18-2.85-1.64a12.65,12.65,0,0,1-2.88-1.49c-.78-.69-2.7-4.53-3.16-5.55s-.11-2.07-.42-3.15-1.26-1.76-1.47-2.78-.49-2-.63-3-1.29-5.06-1.39-6.08-.43-5.63-.63-6.73-1.79-5.32-2.13-6.4-1.56-5.34-2.06-6.36-.74-2.14-1.33-3.11-1.61-1.56-2.14-2.5-2.38-4.84-2.87-5.8-1-1.92-1.44-2.89-.27-2.24-.72-3.22a26.45,26.45,0,0,1-1.39-3.08,26.78,26.78,0,0,1-.38-3.36A26.34,26.34,0,0,1,2.69,54c0-1.12-.66-2.24-.57-3.36a27.67,27.67,0,0,1,.22-3.42,52.3,52.3,0,0,1,2.4-6.39c.51-1,1.72-1.58,2.36-2.5a17.92,17.92,0,0,1,2.43-2.35c.83-.84,1.1-2.22,2-2.89a27.66,27.66,0,0,1,3.2-1.4c1-.54,1.64-1.95,2.74-2.41s2.29-.65,3.4-1,2.4-.21,3.52-.48A32.38,32.38,0,0,1,27.84,27C29.08,26.86,30.18,27.47,31.25,27.49ZM42.69,11.58a19.16,19.16,0,0,0-.93-3.19,20.57,20.57,0,0,0-1.13-3.18,16,16,0,0,0-2.07-2.66A10.63,10.63,0,0,0,36,.34a3.44,3.44,0,0,0-3.07,0A4.51,4.51,0,0,0,30.7,2.44a18.45,18.45,0,0,0-1.36,2.88,18.89,18.89,0,0,0-.78,3.09A19.63,19.63,0,0,0,28,11.58a12.24,12.24,0,0,0,.91,3.5,15.34,15.34,0,0,0,1.3,3.33,15.38,15.38,0,0,0,2,3.06,8.48,8.48,0,0,0,3.1,1.88,3.38,3.38,0,0,0,3.64-.77,14.12,14.12,0,0,0,2.23-2,11.76,11.76,0,0,0,1.28-2.74,9.56,9.56,0,0,0,.76-2.91A17.88,17.88,0,0,0,42.69,11.58ZM18.56,13.42a9.56,9.56,0,0,0,.19,3,9.21,9.21,0,0,0,1.37,2.73,2.79,2.79,0,0,0,2.56,1.08,2.75,2.75,0,0,0,2.42-1.41A11,11,0,0,0,26,15.19a9.6,9.6,0,0,0-.34-3.74,9.48,9.48,0,0,0-1.76-3.33,2.43,2.43,0,0,0-2.53-.9,2.89,2.89,0,0,0-2.05,1.85,37,37,0,0,0-.9,4.29C18.51,13.39,18.48,13.4,18.56,13.42Zm-7,6.86a7.3,7.3,0,0,0,1.22,2.93c.72,1,1.58,1.53,2.71,1s2.83-.84,3.06-2.8A10.64,10.64,0,0,0,18.37,18,8,8,0,0,0,16.91,15a6,6,0,0,0-2.59-2.13c-1.09-.44-1.89-.1-2.31,1.21-.37,1.15-.61,2.4-.76,3.06A24,24,0,0,0,11.54,20.28Zm-6,7.16C6,29.2,6.74,30.3,7.68,30.73s2.25.11,3.57-1.19c.08-.08.23-.08.31-.16a3.78,3.78,0,0,0,.81-4.27A6.23,6.23,0,0,0,9,21.55,2.38,2.38,0,0,0,6,22.18a5.13,5.13,0,0,0-1,3.19C5.1,25.81,5.34,26.64,5.56,27.44Zm-3,10.13A3.6,3.6,0,0,0,5.23,36a4.8,4.8,0,0,0,1.21-2.86A3.51,3.51,0,0,0,3.3,29.75,3,3,0,0,0,.8,31.19,5.06,5.06,0,0,0,0,34.05C0,36.27,1,37.55,2.6,37.57Z"/></g></g></svg>