<svg xmlns="http://www.w3.org/2000/svg" viewBox="0 0 50.69 125.2"><defs><style>.cls-1{fill:#23661b;}</style></defs><title>Asset 11</title><g id="Layer_2" data-name="Layer 2"><g id="Kuvituselementit"><path class="cls-1" d="M22.85,27a33.06,33.06,0,0,1,3.43.69c1.11.27,2.39.1,3.51.48s2.34.56,3.4,1,1.74,1.87,2.74,2.41a27.66,27.66,0,0,1,3.2,1.4c.93.67,1.2,2.05,2,2.89a17.92,17.92,0,0,1,2.43,2.35c.64.92,1.85,1.49,2.36,2.5a52.3,52.3,0,0,1,2.4,6.39,27.67,27.67,0,0,1,.22,3.42c.09,1.12-.52,2.24-.57,3.36a26.34,26.34,0,0,1-.24,3.32,26.78,26.78,0,0,1-.38,3.36A26.45,26.45,0,0,1,46,63.71c-.45,1-.26,2.25-.72,3.22s-1,1.94-1.44,2.89-2.35,4.87-2.87,5.8-1.59,1.58-2.14,2.5-.83,2.1-1.33,3.11-1.72,5.28-2.06,6.36S33.51,92.86,33.3,94s-.53,5.59-.63,6.73-1.25,5.06-1.39,6.08-.43,2-.63,3-1.18,1.79-1.47,2.78,0,2.22-.42,3.15-2.38,4.86-3.16,5.55a12.65,12.65,0,0,1-2.88,1.49c-.92.46-1.77,1.4-2.85,1.64a18.59,18.59,0,0,1-4,.77c-1.29,0-2.5-1.22-3.73-1.69a10.74,10.74,0,0,1-3.46-1.74A24,24,0,0,1,6.2,119a21.53,21.53,0,0,1-2.39-2.87,21,21,0,0,1-1.71-3.34,22.55,22.55,0,0,1-1-3.62,56.62,56.62,0,0,1-1-7.53c.1-1.34,1.15-2.57,1.49-3.77a15.44,15.44,0,0,1,1.62-3.52C3.77,93.24,5,92.71,6,91.81c.78-.75,1.26-1.82,2-2.59S10,88.07,10.7,87.28s.65-2.35,1.39-3.14a28.22,28.22,0,0,0,2.2-2.68,50.17,50.17,0,0,0,3.24-6.11c.4-1.08,1.68-1.94,1.95-3.11a30.13,30.13,0,0,0,.6-3.52,42,42,0,0,0-.3-7.19,17.3,17.3,0,0,0-1.54-3.3A17.6,17.6,0,0,0,16.56,55a22.62,22.62,0,0,0-2.28-2c-.72-.65-2.32-.34-3-1a34.28,34.28,0,0,1-4.56-5.82c-.43-1.07,0-6.07,0-7.31,0-1.4-.38-2.74-.11-3.91.31-1.36,2.72-6.36,3.79-7.08s2.71-.44,4.07-.73c1.61-.35,3.34.49,5,.33C20.51,27.47,21.61,26.86,22.85,27ZM7.51,14.89a9.56,9.56,0,0,0,.76,2.91,11.76,11.76,0,0,0,1.28,2.74,14.12,14.12,0,0,0,2.23,2,3.38,3.38,0,0,0,3.64.77,8.48,8.48,0,0,0,3.1-1.88,15.38,15.38,0,0,0,1.95-3.06,15.34,15.34,0,0,0,1.3-3.33,12.24,12.24,0,0,0,.91-3.5,19.63,19.63,0,0,0-.55-3.17,18.89,18.89,0,0,0-.78-3.09A18.45,18.45,0,0,0,20,2.44a4.51,4.51,0,0,0-2.22-2,3.44,3.44,0,0,0-3.07,0,10.63,10.63,0,0,0-2.57,2.21,16,16,0,0,0-2.07,2.66A20.57,20.57,0,0,0,8.93,8.39,19.16,19.16,0,0,0,8,11.58,17.88,17.88,0,0,0,7.51,14.89Zm24.75-1.53a37,37,0,0,0-.9-4.29,2.89,2.89,0,0,0-2.05-1.85,2.43,2.43,0,0,0-2.53.9A9.48,9.48,0,0,0,25,11.45a9.6,9.6,0,0,0-.34,3.74,11,11,0,0,0,.91,3.68A2.75,2.75,0,0,0,28,20.28a2.79,2.79,0,0,0,2.56-1.08,9.21,9.21,0,0,0,1.37-2.73,9.56,9.56,0,0,0,.19-3C32.21,13.4,32.18,13.39,32.26,13.36Zm7.18,3.74c-.15-.66-.39-1.91-.76-3.06-.42-1.31-1.22-1.65-2.31-1.21A6,6,0,0,0,33.78,15,8,8,0,0,0,32.32,18a10.64,10.64,0,0,0-.16,3.43c.23,2,1.81,2.25,3.06,2.8s2-.05,2.71-1a7.3,7.3,0,0,0,1.22-2.93A24,24,0,0,0,39.44,17.1Zm6.23,8.27a5.13,5.13,0,0,0-1-3.19,2.38,2.38,0,0,0-3.06-.63,6.23,6.23,0,0,0-3.33,3.56,3.78,3.78,0,0,0,.81,4.27c.08.08.23.08.31.16,1.32,1.3,2.51,1.68,3.57,1.19s1.64-1.53,2.12-3.29C45.35,26.64,45.59,25.81,45.67,25.37Zm5,8.68a5.06,5.06,0,0,0-.8-2.86,3,3,0,0,0-2.5-1.44,3.51,3.51,0,0,0-3.14,3.42A4.8,4.8,0,0,0,45.46,36a3.6,3.6,0,0,0,2.63,1.54C49.73,37.55,50.69,36.27,50.69,34.05Z"/></g></g></svg>