<svg class="logo" xmlns="http://www.w3.org/2000/svg" viewBox="0 0 212.51 149.62">
    <defs>
      <style>
  .cls-1 {
    fill: #fff;
  }
  .cls-2 {
    fill: #23661b;
  }
      </style>
    </defs>
    <title>Plant Pack</title>
    <g id="Layer_2" data-name="Layer 2">
      <g id="Logo">
        <g id="Plant_Pack_Logo" data-name="Plant Pack Logo">
          <path
            class="cls-1"
            d="M0,88.09H13.44V94.9c3.27-4.42,7.78-7.69,14.76-7.69,11.05,0,21.56,8.66,21.56,24.48v.18c0,15.82-10.33,24.49-21.56,24.49a18.2,18.2,0,0,1-14.76-7.08v20.34H0Zm36.33,23.78v-.18c0-7.86-5.3-13.07-11.58-13.07s-11.49,5.21-11.49,13.07v.18c0,7.87,5.22,13.09,11.49,13.09S36.33,119.83,36.33,111.87Z"
          />
          <path
            class="cls-1"
            d="M55.1,121.86v-.18c0-10.34,7.86-15.11,19.09-15.11a33.91,33.91,0,0,1,11.58,1.94v-.79c0-5.57-3.45-8.66-10.17-8.66a34.92,34.92,0,0,0-13.08,2.56L59.16,91.37a41.82,41.82,0,0,1,18.39-3.8c7.34,0,12.64,1.94,16,5.3,3.55,3.54,5.14,8.75,5.14,15.12v27.48h-13v-5.12c-3.27,3.62-7.78,6-14.32,6C62.43,136.36,55.1,131.23,55.1,121.86Zm30.84-3.09v-2.39a20.8,20.8,0,0,0-8.57-1.76c-5.74,0-9.28,2.29-9.28,6.53v.18c0,3.63,3,5.74,7.34,5.74C81.7,127.07,85.94,123.63,85.94,118.77Z"
          />
          <path
            class="cls-1"
            d="M106.22,112.05v-.18a24.32,24.32,0,0,1,24.84-24.66c8.92,0,14.49,3,18.91,8L141.75,104c-3-3.18-6-5.22-10.78-5.22-6.72,0-11.49,5.92-11.49,12.9v.18c0,7.25,4.68,13.09,12,13.09,4.51,0,7.6-1.95,10.87-5l7.87,8c-4.6,5-9.91,8.66-19.36,8.66A24.19,24.19,0,0,1,106.22,112.05Z"
          />
          <path
            class="cls-1"
            d="M157.25,88h13.44v17.34l15.73-17.24h16.09l-18,18.66,18.64,28.72H187.57L175.46,116l-4.77,5v14.4H157.25Z"
          />
          <path
            class="cls-1"
            d="M0,17.16H13.44V24c3.27-4.43,7.78-7.7,14.77-7.7,11,0,21.58,8.67,21.58,24.5v.17c0,15.83-10.35,24.5-21.58,24.5a18.22,18.22,0,0,1-14.77-7.07V78.71H0ZM36.34,40.94v-.17c0-7.87-5.3-13.09-11.58-13.09S13.27,32.9,13.27,40.77v.17C13.27,48.81,18.48,54,24.76,54S36.34,48.9,36.34,40.94Z"
          />
          <path class="cls-1" d="M58.55,0H72V64.56H58.55Z" />
          <path
            class="cls-1"
            d="M132.39,17.16h13.44v6.72c3.1-4,7.08-7.61,13.89-7.61,10.17,0,16.09,6.72,16.09,17.6V64.56H162.37V38.11c0-6.36-3-9.63-8.14-9.63s-8.4,3.27-8.4,9.63V64.56H132.39Z"
          />
          <path
            class="cls-1"
            d="M187.93,51.11V28.65h-5.66V17.16h5.66V5h13.44V17.16h11.14V28.65H201.37V48.9c0,3.1,1.33,4.6,4.33,4.6a13.72,13.72,0,0,0,6.64-1.68V62.61a19.81,19.81,0,0,1-10.61,2.74C193.5,65.35,187.93,62.08,187.93,51.11Z"
          />
          <path
            class="cls-2"
            d="M125.37,6.07c-48,8.65-50.53,35.21-47.7,50.45A9.69,9.69,0,0,0,82,62.79c5.59-11.23,17.53-32.56,32.91-44.89,0,0-19.38,24.74-27.7,46.88a15.17,15.17,0,0,0,7.27-.58C140.16,48.72,125.37,6.07,125.37,6.07Z"
          />
        </g>
      </g>
    </g>
  </svg>