<svg xmlns="http://www.w3.org/2000/svg" viewBox="0 0 212.51 209.34"><defs><style>.cls-1{fill:#fff;}.cls-2{fill:#23661b;}</style></defs><title>logo-by-cloetta</title><g id="Layer_2" data-name="Layer 2"><g id="Logo"><path class="cls-1" d="M12.91,181.75c.47.33,2.35,1.69,2.87,2a4.05,4.05,0,0,1,1.41,1.22c.14.24.47.8,1,1.65a7.69,7.69,0,0,1,.94,4c0,.24-.05.94-.05,1.13a7.61,7.61,0,0,1-.71,2.11,13.15,13.15,0,0,1-5.21,5.55c-1.08.61-2.07,1.55-3.15,2.21a5.68,5.68,0,0,1-2.77.7,8.68,8.68,0,0,1-3.15-.94,1.74,1.74,0,0,0-.8-.28c-1.18-.05-1-.51-1.36-1.55a7.57,7.57,0,0,0-.43-1.17,15.82,15.82,0,0,1-1-5.74v-.14c0-.33.19-1.31.19-1.64v-1.08c0-.66,0-3,0-3.62s0-1.32,0-1.74V184c0-2.07.23-2.87.28-5.55a.66.66,0,0,0,0-.33c0-1.31,0-2.86,0-4.23v-.23c0-.52-.28-1.36-.28-1.93v-2c0-.61-.14-1-.14-1.55a2.7,2.7,0,0,1,.14-.8c.42-1.27.14-3,1.69-3a2.32,2.32,0,0,1,.61.09,20.41,20.41,0,0,0,2,1A1.28,1.28,0,0,1,6,166.76v.33c0,1,.29.37.29,2.3v3.52c0,.24,0,1,0,1.18,0,.52.19,3,.19,3.62a7.5,7.5,0,0,1,0,1.17c0,.28,0,.47,0,.66a.35.35,0,0,0,.19.33,3.5,3.5,0,0,0,1.55.19h.28a6.17,6.17,0,0,1,2.3.33A11.62,11.62,0,0,1,12.91,181.75ZM5.68,195.8V196c0,.52.23.75.61.75h.14c2.49-.33,4.51-.8,5.31-1.41a2.1,2.1,0,0,0,.94-1.83v-.14c0-.61.28-1.69.28-2.21a1.92,1.92,0,0,0-.05-.24,1.72,1.72,0,0,1-.18-.75c-.05-1-1-1.64-1.79-3.34-.47-1-2.87-1.4-3.76-2-.14,0-.19-.09-.24-.09-.28,0-.47.23-.51.66V187c0,.61-.19,2.63-.19,3.24s-.28,3.29-.33,3.85C5.91,194.39,5.68,195.47,5.68,195.8Z"/><path class="cls-1" d="M31.38,175.5a9.69,9.69,0,0,1,1.51.28.67.67,0,0,1,.61.71v.75a7.55,7.55,0,0,1-.71,2.77,54.08,54.08,0,0,0-1.64,6.2c-.33,1.6-.52,1.74-1,3.48-.56,2.12-1.5,4.23-1.69,6.06a8.53,8.53,0,0,1-.38,2c-.61,2-1,3.44-1.12,4.09a21,21,0,0,0-.29,2.87,1.66,1.66,0,0,1-.47,1.13,1,1,0,0,0-.32.66v.14c0,.56-.19.7-.66,1a4.57,4.57,0,0,0-.75.61c-.47.66-.71,1-1.65,1h-.09a1.56,1.56,0,0,1-1.51-1.51,1.6,1.6,0,0,0-.47-.94,1,1,0,0,1-.28-.66v-.18a43.72,43.72,0,0,1,.94-4.56,31,31,0,0,0,1.41-4c.94-3.15,1.41-4.79,1.46-4.84A19.19,19.19,0,0,1,23,189.64c-1.08-2.58-2-5-2.72-7.23a14.49,14.49,0,0,1-1-4.75c0-1.13,1.32-1.79,2.07-1.79s1.27.57,1.27,1.46v.42a2.81,2.81,0,0,0,.14,1c.7,1.65,2.07,3.57,2.54,5.27.28.79.61,1.92.84,2.81l.19-.42v-.05s0-.23,0-.28a42.86,42.86,0,0,1,1.6-5.17s.37-1.17,1.12-3.43c0-.14.1-.33.1-.47A3.11,3.11,0,0,1,31.38,175.5Z"/><g id="Plant_Pack_Logo" data-name="Plant Pack Logo"><path class="cls-1" d="M0,88.09H13.44V94.9c3.27-4.42,7.78-7.69,14.76-7.69,11.05,0,21.56,8.66,21.56,24.48v.18c0,15.82-10.33,24.49-21.56,24.49a18.2,18.2,0,0,1-14.76-7.08v20.34H0Zm36.33,23.78v-.18c0-7.86-5.3-13.07-11.58-13.07s-11.49,5.21-11.49,13.07v.18c0,7.87,5.22,13.09,11.49,13.09S36.33,119.83,36.33,111.87Z"/><path class="cls-1" d="M55.1,121.86v-.18c0-10.34,7.86-15.11,19.09-15.11a33.91,33.91,0,0,1,11.58,1.94v-.79c0-5.57-3.45-8.66-10.17-8.66a34.92,34.92,0,0,0-13.08,2.56L59.16,91.37a41.82,41.82,0,0,1,18.39-3.8c7.34,0,12.64,1.94,16,5.3,3.55,3.54,5.14,8.75,5.14,15.12v27.48h-13v-5.12c-3.27,3.62-7.78,6-14.32,6C62.43,136.36,55.1,131.23,55.1,121.86Zm30.84-3.09v-2.39a20.8,20.8,0,0,0-8.57-1.76c-5.74,0-9.28,2.29-9.28,6.53v.18c0,3.63,3,5.74,7.34,5.74C81.7,127.07,85.94,123.63,85.94,118.77Z"/><path class="cls-1" d="M106.22,112.05v-.18a24.32,24.32,0,0,1,24.84-24.66c8.92,0,14.49,3,18.91,8L141.75,104c-3-3.18-6-5.22-10.78-5.22-6.72,0-11.49,5.92-11.49,12.9v.18c0,7.25,4.68,13.09,12,13.09,4.51,0,7.6-1.95,10.87-5l7.87,8c-4.6,5-9.91,8.66-19.36,8.66A24.19,24.19,0,0,1,106.22,112.05Z"/><path class="cls-1" d="M157.25,88h13.44v17.34l15.73-17.24h16.09l-18,18.66,18.64,28.72H187.57L175.46,116l-4.77,5v14.4H157.25Z"/><path class="cls-1" d="M0,17.16H13.44V24c3.27-4.43,7.78-7.7,14.77-7.7,11,0,21.58,8.67,21.58,24.5v.17c0,15.83-10.35,24.5-21.58,24.5a18.22,18.22,0,0,1-14.77-7.07V78.71H0ZM36.34,40.94v-.17c0-7.87-5.3-13.09-11.58-13.09S13.27,32.9,13.27,40.77v.17C13.27,48.81,18.48,54,24.76,54S36.34,48.9,36.34,40.94Z"/><path class="cls-1" d="M58.55,0H72V64.56H58.55Z"/><path class="cls-1" d="M132.39,17.16h13.44v6.72c3.1-4,7.08-7.61,13.89-7.61,10.17,0,16.09,6.72,16.09,17.6V64.56H162.37V38.11c0-6.36-3-9.63-8.14-9.63s-8.4,3.27-8.4,9.63V64.56H132.39Z"/><path class="cls-1" d="M187.93,51.11V28.65h-5.66V17.16h5.66V5h13.44V17.16h11.14V28.65H201.37V48.9c0,3.1,1.33,4.6,4.33,4.6a13.72,13.72,0,0,0,6.64-1.68V62.61a19.81,19.81,0,0,1-10.61,2.74C193.5,65.35,187.93,62.08,187.93,51.11Z"/><path class="cls-2" d="M125.37,6.07c-48,8.65-50.53,35.21-47.7,50.45A9.69,9.69,0,0,0,82,62.79c5.59-11.23,17.53-32.56,32.91-44.89,0,0-19.38,24.74-27.7,46.88a15.17,15.17,0,0,0,7.27-.58C140.16,48.72,125.37,6.07,125.37,6.07Z"/></g><path class="cls-1" d="M199,196.05a7.12,7.12,0,0,1-5.8,2.87,1.63,1.63,0,0,1-1.82-1.59c0-3.1,4-5,4-7.65,0-.88-.78-1.48-1.85-1.52a6.53,6.53,0,0,0-3.38.94c.63.66-.29,2.16-1.58,4.37-1.53,2.63-3.17,5.4-5.7,5.4-5.05,0-3.51-10.81,9.55-12.33.71-.08,1.12-.2,1.05-.75-.1-.82-1.9-1.49-4.44-1.5a18.31,18.31,0,0,0-7.67,1.61,14.07,14.07,0,0,0-8,10.31,15.49,15.49,0,0,1-7.42,2.57c-2.94,0-1.57-2.86-.68-4.42,1.67-2.9,5-7.61,7.93-11.83,7.7-.45,12.37-.09,12.37-.78,0-1.27-6.16-1.82-10.37-2.07.84-1.22,3-4.46,3-4.65,0-1.48-2.73-2.16-6.54-2,.38,1.07-2.84,5.67-3.37,6.38-2.77-.07-5.89-.17-8.76-.23.31-.45,3-4.31,3-4.59,0-1.43-2.23-2.13-6.5-2,.11,1.16-1.6,3.8-3.36,6.39-.86,0-5-.15-5.47-.22-2-.27-2.75-.54-3.14-1.4a4,4,0,0,0-2.48,3.57c0,2.1,2.25,2.64,2.91,2.64.36,0,2.33-.08,5.21-.21-3.27,4.86-6.43,9.54-6.6,9.74-.59.69-4.37,6.89-10.83,6.89-3.22,0-4.86-1.63-5.22-3.63,7-.94,12.15-4.56,12.17-8.29,0-3-2.66-5-6.61-5-6.17,0-12.46,6.69-12.46,12.11a14.49,14.49,0,0,1-3.37-.5c.7-1.2,2.45-7.23-1.78-7.23-3.67,0-4.13,5.89-.81,7.71-.51,1.43-3.79,3.5-6.07,3.5-3.91,0-4.85-1.82-4.85-4.48,0-5.29,8-10.34,13-8.24-.33-1.94-2.79-3.31-6-3.31-7.47,0-13.6,7.3-13.6,12.43-1.17,1.32-4.47,3.76-6.77,3.76-2.07,0-2.63-2.21-1.69-3.63.37-.57,14.36-21.5,15.55-23.32s1-3.77-3.47-3.77a22.47,22.47,0,0,0-2.85.17S98,169,97,170.4c-.46.63-12.93,19.83-15.15,23s-6.28,5.34-11.75,5.34c-8.24,0-12.66-5-12.66-10.78,0-8.32,8.75-19.61,20.83-19.61,6.66,0,7.19,5.95,4.2,5.95a1.66,1.66,0,0,1-1.82-1.25c-5.65,2.17-3.19,8.23,1.14,8.23s6.48-3.91,6.54-6.46c0,0,.17-9.38-13.16-9.38-13.73,0-26.6,9.85-26.64,22.16,0,8.67,7,15.22,16.57,15.11a26.45,26.45,0,0,0,14.82-5.16c-.36,3.23,2.29,5.15,5.08,5.15,4.4,0,9.55-3.73,11.7-5.38.64,3.87,4.17,5.4,7.55,5.39,5.55,0,10-4,11.61-6.56a14.87,14.87,0,0,0,4.18.52c.49,3,2.61,6,8.79,6s11.74-4.9,11.74-4.9c0,3,1.87,4.87,5.07,4.88a13.18,13.18,0,0,0,5.32-1.24,29.44,29.44,0,0,0,5.7-3.56,4.58,4.58,0,0,0,1.1,3.22,5.27,5.27,0,0,0,4,1.57c2.74,0,6.67-1.16,11.54-4.61a5.59,5.59,0,0,0,5.86,4.65A10.32,10.32,0,0,0,186.5,199c.34,3,2.73,3.77,4.88,3.77C196.57,202.78,201.13,196.05,199,196.05Zm-64.3-9.55c1.11,0,1.82.61,1.77,1.62-.15,2.79-5.89,6.93-10,6.93C126.47,189,132.16,186.49,134.66,186.5Zm23.26,7.93c-1.59,2.28-4.95,4.59-7.42,4.59a2.25,2.25,0,0,1-2.37-2.33c0-1.69,7.65-12.21,8.62-13.54,0,0,9.11-.34,9.12-.34C164.83,184.31,158.24,194,157.92,194.43Z"/></g></g></svg>