<svg xmlns="http://www.w3.org/2000/svg" viewBox="0 0 136 131.84"><defs><style>.cls-1{fill:#23661b;}</style></defs><title>Asset 9</title><g id="Layer_2" data-name="Layer 2"><g id="Kuvituselementit"><g id="TNV17T"><path class="cls-1" d="M10.71,52.76C9.49,52,8.57,50.85,7.35,50.13s-2.76-.91-4-1.64S1.23,46.6,0,45.87a.79.79,0,0,1,.23,0c1.52,0,3,0,4.54,0s3,0,4.55,0,3,.14,4.54.14,3,.12,4.54.12l4.54,0c1.52,0,3,.06,4.54.06s3-.09,4.55-.09c.23,0,.66-.23.79,0,.84,1.36,1.44,2.87,2.29,4.24s1.39,2.9,2.23,4.26,2.23,2.39,3.07,3.75,1.51,2.84,2.35,4.2,1.26,3,2.1,4.36,1.77,2.67,2.61,4,1.69,2.72,2.53,4.09a.58.58,0,0,1,.09.32c-1.38-.84-2.68-1.84-4.06-2.68s-2.75-1.7-4.14-2.54-2.74-1.89-4.13-2.73C37,68.74,36,70,35.24,71.33s-1.23,2.79-2,4.11-1.26,2.77-2,4.09-1.92,2.39-2.68,3.7-1.22,2.59-2,3.91c1.49,0,2.79.07,4.28.07s3-.21,4.47-.21h4.47c1.49,0,3,.54,4.47.54s3,.08,4.47.08,3-.62,4.47-.62,3,.62,4.46.62,3-.34,4.45-.34c0,1.58-.18,3.13-.18,4.71s.35,3.15.35,4.73,0,3.15,0,4.73.06,3.15.06,4.72-.16,3.16-.16,4.73,0,3.15,0,4.73.2,3.18.2,4.76c-.14,0-.6.25-.75.25l-4.48,0c-1.5,0-3-.44-4.49-.44s-3,0-4.49,0-3-.17-4.48-.17-3,.16-4.49.17-3,.54-4.48.55a17.55,17.55,0,0,1-3.48-.56,16.7,16.7,0,0,1-3.37-.93,14.56,14.56,0,0,1-4.36-2.92,14.19,14.19,0,0,1-3.26-4.15c-.59-1.26-.82-2.69-1.45-3.94s-1-2.62-1.65-3.85-1.86-2.16-2.52-3.39-1.41-2.41-2.07-3.63l-1.95-3.7c-.73-1.4-1.09-3-1.83-4.38s-1.51-2.77-2.25-4.16S5.24,82.27,4.5,80.88s-1.62-2.71-2.35-4.11a10.47,10.47,0,0,1-1-6,10.06,10.06,0,0,1,1.53-4.29c.9-1.51,2-2.87,2.93-4.37S7.15,58.92,8,57.41s1.83-3,2.73-4.49C10.81,52.85,10.65,52.88,10.71,52.76Z"/><path class="cls-1" d="M120,41.11c.63,1.1,1.67,1.66,2.28,2.72.84,1.47.92,3.36,1.76,4.82s2.28,2.58,3.12,4.05S128.2,56,129,57.43s2.4,2.52,3.24,4,1.52,3,2.36,4.48A13.36,13.36,0,0,1,136,70.32c.21,1.34-.28,2.64-.4,3.94a12.6,12.6,0,0,1-.91,3.71c-.78,1.91-1.17,4-2.43,5.65-.6.77-1.12,1.57-1.65,2.4-.86,1.38-2.25,2.43-3.11,3.8s-1.27,3-2.14,4.42-1.71,2.76-2.58,4.13-2,2.6-2.83,4-1.48,2.91-2.35,4.28-1.64,2.81-2.51,4.18-2,2.6-2.84,4a10.73,10.73,0,0,1-5.46,4.2c-1.46.54-3-.07-4.55-.09-1.19,0-2.39.82-3.58.8-2,0-4-.76-6-.79-1.76,0-3.54.51-5.31.48-.13,0-.1-.25-.26-.25,0,1.41-.47,2.79-.5,4.19s.38,2.82.35,4.23.19,2.81.16,4.22l-.59.08c-.47-.82-.68-1.79-1.15-2.61-.81-1.41-2-2.61-2.78-4s-1.75-2.73-2.56-4.14-1.06-3.13-1.87-4.54-1.63-2.8-2.44-4.21-2.08-2.55-2.88-3.95-1.19-3.06-2-4.47c-.13-.22-.4-.34-.29-.55.76-1.4,1.76-2.66,2.52-4.06s1.23-3,2-4.35,1.79-2.65,2.55-4,1.67-2.71,2.43-4.11,1.52-2.79,2.27-4.19,1-3.06,1.79-4.46l2.25-4.21c.06-.1.59-.1.72-.19,0,1.61-.26,3.24-.3,4.85s-.25,3.21-.29,4.83.12,3.12.08,4.74c1.52,0,3-.18,4.47-.17l4.57,0c1.52,0,3,.23,4.57.24s3,.29,4.57.3,3.25,0,4.78,0c-.74-1.3-1.56-2.79-2.31-4.09s-1.57-2.54-2.32-3.84-1.41-2.63-2.16-3.92-1.26-2.72-2-4-2.19-2.18-2.94-3.47-1.36-2.66-2.11-4-1.62-2.51-2.36-3.8-1-2.76-1.72-4.06c1.36-.79,2.71-1.39,4.07-2.18s2.46-2,3.83-2.82,3-1.13,4.34-1.91,2.81-1.44,4.17-2.23,2.51-2,3.87-2.74,2.93-1.22,4.3-2S118.59,41.9,120,41.11Z"/><path class="cls-1" d="M68.29,44.18c1.41-.8,2.49-2.14,3.9-2.94s3.17-1,4.57-1.76,2.62-2,4-2.77C80,35.4,79,34.22,78.2,32.91s-1-2.93-1.79-4.24-1.7-2.53-2.47-3.84S72.29,22.27,71.51,21,70,18.5,69.17,17.19C68.44,18.5,67.71,19.65,67,21s-1.14,2.8-1.87,4.11S63.6,27.65,62.87,29s-1.88,2.38-2.6,3.69-1.24,2.74-2,4.05-1.12,2.79-1.85,4.1-2.1,2.26-2.83,3.57-1.06,3.2-1.79,4.51c-1.38-.76-3-1.7-4.39-2.46S45,44.37,43.6,43.61s-3-1.11-4.37-1.87-2.54-1.91-3.93-2.67-2.81-1.41-4.19-2.17-3-1.12-4.36-1.88-2.68-1.7-4.06-2.46c.15-.29.52-.52.68-.8.76-1.36,1.25-2.88,2-4.24s1.75-2.61,2.5-4l2.27-4.11c.76-1.36,1.42-2.79,2.18-4.15s1.82-2.57,2.58-3.93S36,8.37,36.75,7A13.06,13.06,0,0,1,39,3.83c1.08-1,2.61-1.42,3.88-2.07a14,14,0,0,1,4-1.69c1.71-.29,3.37.38,5.06.78a14.34,14.34,0,0,0,3,0c2.28,0,4.56-.39,6.83-.37,1.32,0,2.64.14,4,.15s2.63.36,4,.38C71.86,1,74.09.78,76.32.8s4.55.34,6.82.36,4.42.15,6.63.22a15.71,15.71,0,0,1,2.17,0A9.59,9.59,0,0,1,95.86,3a10.48,10.48,0,0,1,2.77,3.21c.9,1.54,2.16,2.88,3.06,4.43s1.78,3.1,2.69,4.65,1.4,3.33,2.31,4.87c0,.06,0-.17.07-.08,1.22-.71,2.33-1.56,3.56-2.28s2.48-1.36,3.71-2.07,2.46-1.46,3.7-2.17c-.07.14,0,.58,0,.65-.73,1.32-1.59,2.59-2.32,3.91s-1.22,2.79-2,4.12-1.27,2.76-2,4.08-1.41,2.68-2.14,4-1.78,2.48-2.51,3.81S105.71,37,105,38.3s-1.8,2.46-2.54,3.79a.62.62,0,0,1-.5.37c-1.23.06-2.46-.06-3.69,0s-2.43.42-3.66.48c-1.51.07-3-.13-4.55,0s-3,0-4.55,0c-1.23.06-2.45.19-3.67.25s-2.44.4-3.66.46-2.47,0-3.7,0S72,44,70.77,44c-.87,0-1.76-.35-2.63-.31Z"/></g></g></g></svg>